<svg width="1975" height="1635" viewBox="0 0 1975 1635" fill="none" xmlns="http://www.w3.org/2000/svg">
<g clip-path="url(#clip0_282_24)">
<rect width="1974.19" height="1224" rx="56.4055" fill="url(#paint0_linear_282_24)"/>
<rect x="637.383" y="169.216" width="215.55" height="603.539" rx="107.775" fill="black"/>
<rect x="694.863" y="241.066" width="100.59" height="229.92" rx="50.2949" fill="url(#paint1_linear_282_24)"/>
<rect x="1125.96" y="169.216" width="215.55" height="603.539" rx="107.775" fill="black"/>
<rect x="1183.44" y="241.066" width="100.59" height="229.92" rx="50.2949" fill="url(#paint2_linear_282_24)"/>
<path d="M739.641 1042.09C772.836 749.898 1196.64 750.153 1234.5 1041.78V1041.78C1235.72 1051.18 1228.41 1059.55 1218.93 1059.55H755.225C745.862 1059.55 738.584 1051.4 739.641 1042.09V1042.09Z" fill="#FFA9A9"/>
</g>
<rect x="77" y="1296" width="580" height="338.469" rx="30.5464" fill="#D9D5FE"/>
<path d="M205.555 1397.88C205.28 1405.84 203.499 1415.04 200.211 1425.49C197.092 1435.79 192.589 1448.48 186.704 1463.56L180.521 1480.17C183.264 1480.75 186.097 1481.09 189.02 1481.19C194.053 1481.37 201.62 1481.14 211.721 1480.51C221.821 1479.89 229.064 1479.65 233.447 1479.8L234.13 1453C234.445 1434.48 234.754 1420.84 235.057 1412.07C235.456 1400.54 239.471 1394.91 247.102 1395.17C253.11 1395.38 256.872 1397.05 258.389 1400.2C260.068 1403.34 260.802 1408 260.588 1414.17C260.369 1420.5 259.543 1430.31 258.108 1443.59C257.856 1446.18 257.464 1450.48 256.931 1456.47C256.399 1462.47 256.057 1467.66 255.905 1472.04L255.88 1479.85L260.759 1479.77C264.667 1479.58 267.676 1479.52 269.787 1479.59C273.684 1479.73 277.374 1481.16 280.856 1483.88C284.344 1486.44 286.029 1489.42 285.911 1492.83C285.771 1496.89 285.012 1500.03 283.634 1502.26C282.419 1504.5 281 1505.59 279.376 1505.53C276.616 1505.43 273.136 1504.99 268.937 1504.19C267.963 1504.16 266.504 1504.03 264.561 1503.8C262.624 1503.41 260.763 1503.18 258.977 1503.12L254.828 1503.22L253.935 1536.11C253.817 1539.52 252.59 1542.07 250.256 1543.78C247.921 1545.49 245.292 1546.29 242.369 1546.19C238.797 1546.07 235.67 1544.82 232.989 1542.45C230.307 1540.08 229.025 1537.2 229.143 1533.79C229.519 1522.91 229.976 1514.39 230.514 1508.23C230.727 1506.77 230.87 1504.99 230.943 1502.88C226.077 1502.55 217.615 1502.83 205.554 1503.71C194.144 1504.62 185.516 1504.97 179.671 1504.77C172.202 1504.51 165.906 1503.23 160.783 1500.94C155.823 1498.66 153.421 1495.24 153.578 1490.7C153.73 1486.31 154.808 1480.98 156.813 1474.71C158.818 1468.44 161.792 1460.01 165.734 1449.42C167.504 1445.25 168.842 1441.8 169.749 1439.07C172.958 1430.89 175.392 1423.99 177.049 1418.35C178.713 1412.56 180.581 1405.55 182.653 1397.33C183.392 1394.76 184.84 1392.86 186.995 1391.63C189.151 1390.41 191.609 1389.84 194.369 1389.94C197.292 1390.04 199.864 1390.86 202.087 1392.4C204.478 1393.78 205.634 1395.61 205.555 1397.88ZM413.145 1413.84C418.216 1422.3 422.191 1431.95 425.068 1442.78C427.95 1453.44 429.201 1464.3 428.819 1475.34C428.364 1488.49 425.659 1500.91 420.703 1512.61C415.909 1524.31 408.918 1533.74 399.73 1540.9C390.704 1548.07 379.858 1551.43 367.194 1550.99C355.341 1550.58 344.566 1547.2 334.869 1540.85C325.178 1534.34 317.956 1526.94 313.203 1518.65C309.677 1512.51 307.068 1505.67 305.378 1498.14C303.693 1490.44 302.983 1482.77 303.247 1475.14C303.707 1461.83 306.916 1448.93 312.875 1436.46C318.995 1423.99 327.14 1414.11 337.308 1406.83C346.967 1400.17 357.885 1397.05 370.062 1397.47C383.539 1397.94 397.9 1403.39 413.145 1413.84ZM347.292 1428.38C345.746 1430.77 344.209 1432.91 342.68 1434.81C338.923 1440.04 336.168 1444.5 334.415 1448.18C332.668 1451.69 331.016 1457.16 329.459 1464.59C328.692 1467.98 328.229 1471.94 328.072 1476.49C327.674 1488.02 329.602 1498.08 333.856 1506.68C338.278 1515.12 344.498 1520.95 352.516 1524.15C356.362 1525.75 360.721 1526.63 365.592 1526.8C377.769 1527.22 387.128 1522.18 393.669 1511.68C400.377 1501.02 404.006 1487.73 404.556 1471.82C405.067 1457.04 402.725 1444.85 397.53 1435.24C392.341 1425.47 383.982 1420.39 372.454 1419.99C367.745 1419.83 363.661 1420.42 360.201 1421.76C356.903 1423.11 352.6 1425.32 347.292 1428.38ZM501.908 1408.13C501.633 1416.08 499.852 1425.29 496.565 1435.74C493.445 1446.04 488.943 1458.72 483.057 1473.8L476.874 1490.41C479.618 1490.99 482.451 1491.34 485.373 1491.44C490.407 1491.61 497.974 1491.38 508.074 1490.76C518.175 1490.13 525.417 1489.89 529.801 1490.05L530.483 1463.25C530.798 1444.73 531.108 1431.08 531.411 1422.31C531.809 1410.79 535.824 1405.15 543.455 1405.42C549.463 1405.62 553.225 1407.3 554.742 1410.44C556.422 1413.59 557.155 1418.25 556.942 1424.42C556.723 1430.75 555.896 1440.55 554.462 1453.83C554.209 1456.43 553.817 1460.72 553.285 1466.72C552.752 1472.71 552.41 1477.9 552.259 1482.29L552.233 1490.09L557.112 1490.01C561.02 1489.82 564.03 1489.77 566.141 1489.84C570.037 1489.97 573.727 1491.4 577.209 1494.12C580.697 1496.68 582.382 1499.67 582.264 1503.08C582.124 1507.14 581.365 1510.28 579.988 1512.51C578.772 1514.74 577.353 1515.83 575.729 1515.77C572.969 1515.68 569.489 1515.23 565.29 1514.44C564.316 1514.4 562.857 1514.27 560.915 1514.04C558.978 1513.65 557.116 1513.42 555.33 1513.36L551.181 1513.46L550.288 1546.35C550.17 1549.76 548.944 1552.32 546.609 1554.03C544.274 1555.73 541.645 1556.54 538.723 1556.44C535.15 1556.31 532.024 1555.07 529.342 1552.7C526.66 1550.33 525.378 1547.44 525.496 1544.03C525.872 1533.15 526.329 1524.63 526.867 1518.47C527.08 1517.02 527.223 1515.24 527.296 1513.12C522.431 1512.79 513.968 1513.07 501.908 1513.95C490.497 1514.86 481.869 1515.21 476.024 1515.01C468.555 1514.75 462.259 1513.48 457.136 1511.19C452.176 1508.9 449.774 1505.49 449.931 1500.94C450.083 1496.56 451.161 1491.23 453.166 1484.96C455.171 1478.69 458.145 1470.26 462.087 1459.66C463.857 1455.5 465.195 1452.05 466.103 1449.32C469.312 1441.14 471.745 1434.23 473.403 1428.6C475.066 1422.8 476.934 1415.8 479.006 1407.58C479.745 1405 481.193 1403.1 483.349 1401.88C485.504 1400.65 487.962 1400.08 490.722 1400.18C493.645 1400.28 496.218 1401.1 498.44 1402.64C500.831 1404.02 501.987 1405.85 501.908 1408.13Z" fill="#7F7BFF"/>
<rect x="697" y="1296" width="580" height="338.469" rx="30.5464" fill="#DFD5FE"/>
<path d="M825.555 1397.88C825.28 1405.84 823.499 1415.04 820.211 1425.49C817.092 1435.79 812.589 1448.48 806.704 1463.56L800.521 1480.17C803.264 1480.75 806.097 1481.09 809.02 1481.19C814.053 1481.37 821.62 1481.14 831.721 1480.51C841.821 1479.89 849.064 1479.65 853.447 1479.8L854.13 1453C854.445 1434.48 854.754 1420.84 855.057 1412.07C855.456 1400.54 859.471 1394.91 867.102 1395.17C873.11 1395.38 876.872 1397.05 878.389 1400.2C880.068 1403.34 880.802 1408 880.588 1414.17C880.369 1420.5 879.543 1430.31 878.108 1443.59C877.856 1446.18 877.464 1450.48 876.931 1456.47C876.399 1462.47 876.057 1467.66 875.905 1472.04L875.88 1479.85L880.759 1479.77C884.667 1479.58 887.676 1479.52 889.787 1479.59C893.684 1479.73 897.374 1481.16 900.856 1483.88C904.344 1486.44 906.029 1489.42 905.911 1492.83C905.771 1496.89 905.012 1500.03 903.634 1502.26C902.419 1504.5 901 1505.59 899.376 1505.53C896.616 1505.43 893.136 1504.99 888.937 1504.19C887.963 1504.16 886.504 1504.03 884.561 1503.8C882.624 1503.41 880.763 1503.18 878.977 1503.12L874.828 1503.22L873.935 1536.11C873.817 1539.52 872.59 1542.07 870.256 1543.78C867.921 1545.49 865.292 1546.29 862.369 1546.19C858.797 1546.07 855.67 1544.82 852.989 1542.45C850.307 1540.08 849.025 1537.2 849.143 1533.79C849.519 1522.91 849.976 1514.39 850.514 1508.23C850.727 1506.77 850.87 1504.99 850.943 1502.88C846.077 1502.55 837.615 1502.83 825.554 1503.71C814.144 1504.62 805.516 1504.97 799.671 1504.77C792.202 1504.51 785.906 1503.23 780.783 1500.94C775.823 1498.66 773.421 1495.24 773.578 1490.7C773.73 1486.31 774.808 1480.98 776.813 1474.71C778.818 1468.44 781.792 1460.01 785.734 1449.42C787.504 1445.25 788.842 1441.8 789.749 1439.07C792.958 1430.89 795.392 1423.99 797.049 1418.35C798.713 1412.56 800.581 1405.55 802.653 1397.33C803.392 1394.76 804.84 1392.86 806.995 1391.63C809.151 1390.41 811.609 1389.84 814.369 1389.94C817.292 1390.04 819.864 1390.86 822.087 1392.4C824.478 1393.78 825.634 1395.61 825.555 1397.88ZM1033.14 1413.84C1038.22 1422.3 1042.19 1431.95 1045.07 1442.78C1047.95 1453.44 1049.2 1464.3 1048.82 1475.34C1048.36 1488.49 1045.66 1500.91 1040.7 1512.61C1035.91 1524.31 1028.92 1533.74 1019.73 1540.9C1010.7 1548.07 999.858 1551.43 987.194 1550.99C975.341 1550.58 964.566 1547.2 954.869 1540.85C945.178 1534.34 937.956 1526.94 933.203 1518.65C929.677 1512.51 927.068 1505.67 925.378 1498.14C923.693 1490.44 922.983 1482.77 923.247 1475.14C923.707 1461.83 926.916 1448.93 932.875 1436.46C938.995 1423.99 947.14 1414.11 957.308 1406.83C966.967 1400.17 977.885 1397.05 990.062 1397.47C1003.54 1397.94 1017.9 1403.39 1033.14 1413.84ZM967.292 1428.38C965.746 1430.77 964.209 1432.91 962.68 1434.81C958.923 1440.04 956.168 1444.5 954.415 1448.18C952.668 1451.69 951.016 1457.16 949.459 1464.59C948.692 1467.98 948.229 1471.94 948.072 1476.49C947.674 1488.02 949.602 1498.08 953.856 1506.68C958.278 1515.12 964.498 1520.95 972.516 1524.15C976.362 1525.75 980.721 1526.63 985.592 1526.8C997.769 1527.22 1007.13 1522.18 1013.67 1511.68C1020.38 1501.02 1024.01 1487.73 1024.56 1471.82C1025.07 1457.04 1022.73 1444.85 1017.53 1435.24C1012.34 1425.47 1003.98 1420.39 992.454 1419.99C987.745 1419.83 983.661 1420.42 980.201 1421.76C976.903 1423.11 972.6 1425.32 967.292 1428.38ZM1121.91 1408.13C1121.63 1416.08 1119.85 1425.29 1116.56 1435.74C1113.45 1446.04 1108.94 1458.72 1103.06 1473.8L1096.87 1490.41C1099.62 1490.99 1102.45 1491.34 1105.37 1491.44C1110.41 1491.61 1117.97 1491.38 1128.07 1490.76C1138.17 1490.13 1145.42 1489.89 1149.8 1490.05L1150.48 1463.25C1150.8 1444.73 1151.11 1431.08 1151.41 1422.31C1151.81 1410.79 1155.82 1405.15 1163.46 1405.42C1169.46 1405.62 1173.23 1407.3 1174.74 1410.44C1176.42 1413.59 1177.15 1418.25 1176.94 1424.42C1176.72 1430.75 1175.9 1440.55 1174.46 1453.83C1174.21 1456.43 1173.82 1460.72 1173.28 1466.72C1172.75 1472.71 1172.41 1477.9 1172.26 1482.29L1172.23 1490.09L1177.11 1490.01C1181.02 1489.82 1184.03 1489.77 1186.14 1489.84C1190.04 1489.97 1193.73 1491.4 1197.21 1494.12C1200.7 1496.68 1202.38 1499.67 1202.26 1503.08C1202.12 1507.14 1201.37 1510.28 1199.99 1512.51C1198.77 1514.74 1197.35 1515.83 1195.73 1515.77C1192.97 1515.68 1189.49 1515.23 1185.29 1514.44C1184.32 1514.4 1182.86 1514.27 1180.91 1514.04C1178.98 1513.65 1177.12 1513.42 1175.33 1513.36L1171.18 1513.46L1170.29 1546.35C1170.17 1549.76 1168.94 1552.32 1166.61 1554.03C1164.27 1555.73 1161.65 1556.54 1158.72 1556.44C1155.15 1556.31 1152.02 1555.07 1149.34 1552.7C1146.66 1550.33 1145.38 1547.44 1145.5 1544.03C1145.87 1533.15 1146.33 1524.63 1146.87 1518.47C1147.08 1517.02 1147.22 1515.24 1147.3 1513.12C1142.43 1512.79 1133.97 1513.07 1121.91 1513.95C1110.5 1514.86 1101.87 1515.21 1096.02 1515.01C1088.55 1514.75 1082.26 1513.48 1077.14 1511.19C1072.18 1508.9 1069.77 1505.49 1069.93 1500.94C1070.08 1496.56 1071.16 1491.23 1073.17 1484.96C1075.17 1478.69 1078.14 1470.26 1082.09 1459.66C1083.86 1455.5 1085.2 1452.05 1086.1 1449.32C1089.31 1441.14 1091.74 1434.23 1093.4 1428.6C1095.07 1422.8 1096.93 1415.8 1099.01 1407.58C1099.75 1405 1101.19 1403.1 1103.35 1401.88C1105.5 1400.65 1107.96 1400.08 1110.72 1400.18C1113.65 1400.28 1116.22 1401.1 1118.44 1402.64C1120.83 1404.02 1121.99 1405.85 1121.91 1408.13Z" fill="#7BA3FF"/>
<rect x="1317" y="1296" width="580" height="338.469" rx="30.5464" fill="#EED5FE"/>
<path d="M1445.56 1397.88C1445.28 1405.84 1443.5 1415.04 1440.21 1425.49C1437.09 1435.79 1432.59 1448.48 1426.7 1463.56L1420.52 1480.17C1423.26 1480.75 1426.1 1481.09 1429.02 1481.19C1434.05 1481.37 1441.62 1481.14 1451.72 1480.51C1461.82 1479.89 1469.06 1479.65 1473.45 1479.8L1474.13 1453C1474.45 1434.48 1474.75 1420.84 1475.06 1412.07C1475.46 1400.54 1479.47 1394.91 1487.1 1395.17C1493.11 1395.38 1496.87 1397.05 1498.39 1400.2C1500.07 1403.34 1500.8 1408 1500.59 1414.17C1500.37 1420.5 1499.54 1430.31 1498.11 1443.59C1497.86 1446.18 1497.46 1450.48 1496.93 1456.47C1496.4 1462.47 1496.06 1467.66 1495.91 1472.04L1495.88 1479.85L1500.76 1479.77C1504.67 1479.58 1507.68 1479.52 1509.79 1479.59C1513.68 1479.73 1517.37 1481.16 1520.86 1483.88C1524.34 1486.44 1526.03 1489.42 1525.91 1492.83C1525.77 1496.89 1525.01 1500.03 1523.63 1502.26C1522.42 1504.5 1521 1505.59 1519.38 1505.53C1516.62 1505.43 1513.14 1504.99 1508.94 1504.19C1507.96 1504.16 1506.5 1504.03 1504.56 1503.8C1502.62 1503.41 1500.76 1503.18 1498.98 1503.12L1494.83 1503.22L1493.93 1536.11C1493.82 1539.52 1492.59 1542.07 1490.26 1543.78C1487.92 1545.49 1485.29 1546.29 1482.37 1546.19C1478.8 1546.07 1475.67 1544.82 1472.99 1542.45C1470.31 1540.08 1469.03 1537.2 1469.14 1533.79C1469.52 1522.91 1469.98 1514.39 1470.51 1508.23C1470.73 1506.77 1470.87 1504.99 1470.94 1502.88C1466.08 1502.55 1457.61 1502.83 1445.55 1503.71C1434.14 1504.62 1425.52 1504.97 1419.67 1504.77C1412.2 1504.51 1405.91 1503.23 1400.78 1500.94C1395.82 1498.66 1393.42 1495.24 1393.58 1490.7C1393.73 1486.31 1394.81 1480.98 1396.81 1474.71C1398.82 1468.44 1401.79 1460.01 1405.73 1449.42C1407.5 1445.25 1408.84 1441.8 1409.75 1439.07C1412.96 1430.89 1415.39 1423.99 1417.05 1418.35C1418.71 1412.56 1420.58 1405.55 1422.65 1397.33C1423.39 1394.76 1424.84 1392.86 1427 1391.63C1429.15 1390.41 1431.61 1389.84 1434.37 1389.94C1437.29 1390.04 1439.86 1390.86 1442.09 1392.4C1444.48 1393.78 1445.63 1395.61 1445.56 1397.88ZM1653.14 1413.84C1658.22 1422.3 1662.19 1431.95 1665.07 1442.78C1667.95 1453.44 1669.2 1464.3 1668.82 1475.34C1668.36 1488.49 1665.66 1500.91 1660.7 1512.61C1655.91 1524.31 1648.92 1533.74 1639.73 1540.9C1630.7 1548.07 1619.86 1551.43 1607.19 1550.99C1595.34 1550.58 1584.57 1547.2 1574.87 1540.85C1565.18 1534.34 1557.96 1526.94 1553.2 1518.65C1549.68 1512.51 1547.07 1505.67 1545.38 1498.14C1543.69 1490.44 1542.98 1482.77 1543.25 1475.14C1543.71 1461.83 1546.92 1448.93 1552.87 1436.46C1559 1423.99 1567.14 1414.11 1577.31 1406.83C1586.97 1400.17 1597.88 1397.05 1610.06 1397.47C1623.54 1397.94 1637.9 1403.39 1653.14 1413.84ZM1587.29 1428.38C1585.75 1430.77 1584.21 1432.91 1582.68 1434.81C1578.92 1440.04 1576.17 1444.5 1574.42 1448.18C1572.67 1451.69 1571.02 1457.16 1569.46 1464.59C1568.69 1467.98 1568.23 1471.94 1568.07 1476.49C1567.67 1488.02 1569.6 1498.08 1573.86 1506.68C1578.28 1515.12 1584.5 1520.95 1592.52 1524.15C1596.36 1525.75 1600.72 1526.63 1605.59 1526.8C1617.77 1527.22 1627.13 1522.18 1633.67 1511.68C1640.38 1501.02 1644.01 1487.73 1644.56 1471.82C1645.07 1457.04 1642.73 1444.85 1637.53 1435.24C1632.34 1425.47 1623.98 1420.39 1612.45 1419.99C1607.75 1419.83 1603.66 1420.42 1600.2 1421.76C1596.9 1423.11 1592.6 1425.32 1587.29 1428.38ZM1741.91 1408.13C1741.63 1416.08 1739.85 1425.29 1736.56 1435.74C1733.45 1446.04 1728.94 1458.72 1723.06 1473.8L1716.87 1490.41C1719.62 1490.99 1722.45 1491.34 1725.37 1491.44C1730.41 1491.61 1737.97 1491.38 1748.07 1490.76C1758.17 1490.13 1765.42 1489.89 1769.8 1490.05L1770.48 1463.25C1770.8 1444.73 1771.11 1431.08 1771.41 1422.31C1771.81 1410.79 1775.82 1405.15 1783.46 1405.42C1789.46 1405.62 1793.23 1407.3 1794.74 1410.44C1796.42 1413.59 1797.15 1418.25 1796.94 1424.42C1796.72 1430.75 1795.9 1440.55 1794.46 1453.83C1794.21 1456.43 1793.82 1460.72 1793.28 1466.72C1792.75 1472.71 1792.41 1477.9 1792.26 1482.29L1792.23 1490.09L1797.11 1490.01C1801.02 1489.82 1804.03 1489.77 1806.14 1489.84C1810.04 1489.97 1813.73 1491.4 1817.21 1494.12C1820.7 1496.68 1822.38 1499.67 1822.26 1503.08C1822.12 1507.14 1821.37 1510.28 1819.99 1512.51C1818.77 1514.74 1817.35 1515.83 1815.73 1515.77C1812.97 1515.68 1809.49 1515.23 1805.29 1514.44C1804.32 1514.4 1802.86 1514.27 1800.91 1514.04C1798.98 1513.65 1797.12 1513.42 1795.33 1513.36L1791.18 1513.46L1790.29 1546.35C1790.17 1549.76 1788.94 1552.32 1786.61 1554.03C1784.27 1555.73 1781.65 1556.54 1778.72 1556.44C1775.15 1556.31 1772.02 1555.07 1769.34 1552.7C1766.66 1550.33 1765.38 1547.44 1765.5 1544.03C1765.87 1533.15 1766.33 1524.63 1766.87 1518.47C1767.08 1517.02 1767.22 1515.24 1767.3 1513.12C1762.43 1512.79 1753.97 1513.07 1741.91 1513.95C1730.5 1514.86 1721.87 1515.21 1716.02 1515.01C1708.55 1514.75 1702.26 1513.48 1697.14 1511.19C1692.18 1508.9 1689.77 1505.49 1689.93 1500.94C1690.08 1496.56 1691.16 1491.23 1693.17 1484.96C1695.17 1478.69 1698.14 1470.26 1702.09 1459.66C1703.86 1455.5 1705.2 1452.05 1706.1 1449.32C1709.31 1441.14 1711.74 1434.23 1713.4 1428.6C1715.07 1422.8 1716.93 1415.8 1719.01 1407.58C1719.75 1405 1721.19 1403.1 1723.35 1401.88C1725.5 1400.65 1727.96 1400.08 1730.72 1400.18C1733.65 1400.28 1736.22 1401.1 1738.44 1402.64C1740.83 1404.02 1741.99 1405.85 1741.91 1408.13Z" fill="#C17BFF"/>
<defs>
<linearGradient id="paint0_linear_282_24" x1="1125.29" y1="-70.5069" x2="987.097" y2="1224" gradientUnits="userSpaceOnUse">
<stop stop-color="#DEDAFE"/>
<stop offset="0.37" stop-color="#BCB8FF"/>
<stop offset="1" stop-color="#7874FE"/>
</linearGradient>
<linearGradient id="paint1_linear_282_24" x1="745.158" y1="241.066" x2="745.158" y2="470.986" gradientUnits="userSpaceOnUse">
<stop stop-color="#C2C2C1"/>
<stop offset="0.395" stop-color="#868685"/>
<stop offset="0.695" stop-color="#616161"/>
<stop offset="1" stop-color="#272727"/>
</linearGradient>
<linearGradient id="paint2_linear_282_24" x1="1233.74" y1="241.066" x2="1233.74" y2="470.986" gradientUnits="userSpaceOnUse">
<stop stop-color="#C2C2C1"/>
<stop offset="0.395" stop-color="#868685"/>
<stop offset="0.695" stop-color="#616161"/>
<stop offset="1" stop-color="#272727"/>
</linearGradient>
<clipPath id="clip0_282_24">
<rect width="1974.19" height="1224" rx="56.4055" fill="white"/>
</clipPath>
</defs>
</svg>
