<svg width="800" height="800" viewBox="0 0 800 800" fill="none" xmlns="http://www.w3.org/2000/svg">
<g clip-path="url(#clip0_460_56)">
<path d="M682.26 514.708C618.18 514.708 566.035 565.403 566.035 627.714C566.035 633.278 566.421 638.73 567.066 644.094L328.256 596.33C331.554 581.885 333.586 566.928 333.586 551.393C333.586 511.083 318.161 474.275 292.883 445.979L472.177 307.29C521.864 389.973 601.979 442.503 606.847 445.642L615.846 451.447L624.845 445.642C631.93 441.069 798.484 331.841 798.484 177.278C798.484 79.5233 716.553 0 615.846 0C515.138 0 433.207 79.5233 433.207 177.28C433.207 213.425 442.381 247.048 456.429 277.476L267.933 423.285C240.015 402.612 205.29 390.182 167.551 390.182C76.0049 390.182 1.51611 462.498 1.51611 551.393C1.51611 686.783 141.932 783.494 158.082 794.163L168.005 800L177.02 794.163L177.166 794.082C189.937 785.632 281.754 722.242 318.401 628.22L576.107 679.764C600.933 744.665 664.051 788.3 672.92 794.163L682.762 800L691.94 794.057C702.852 786.826 798.484 720.679 798.484 627.714C798.484 565.403 746.339 514.708 682.26 514.708ZM615.846 33.207C698.247 33.207 765.277 97.8374 765.277 177.28C765.277 294.477 649.409 387.093 615.829 411.455C582.249 387.142 466.414 294.728 466.414 177.28C466.414 97.8374 533.444 33.207 615.846 33.207ZM167.551 760.267C136.501 737.591 34.7231 655.344 34.7231 551.393C34.7231 480.812 94.3109 423.389 167.551 423.389C240.791 423.389 300.379 480.812 300.379 551.393C300.379 655.344 198.602 737.591 167.551 760.267ZM682.341 760.096C659.268 742.682 599.242 691.242 599.242 627.714C599.242 583.717 636.486 547.915 682.26 547.915C728.033 547.915 765.277 583.717 765.277 627.714C765.277 691.218 705.381 742.666 682.341 760.096Z" fill="#9BFF9F"/>
<path d="M615.846 93.7271C568.548 93.7271 530.055 131.207 530.055 177.28C530.055 223.353 568.548 260.832 615.846 260.832C663.143 260.832 701.636 223.353 701.636 177.28C701.636 131.207 663.143 93.7271 615.846 93.7271ZM615.846 227.625C586.854 227.625 563.262 205.039 563.262 177.28C563.262 149.521 586.854 126.934 615.846 126.934C644.837 126.934 668.429 149.521 668.429 177.28C668.429 205.039 644.837 227.625 615.846 227.625Z" fill="#9BFF9F"/>
<path d="M167.551 474.537C124.064 474.537 88.6843 509.017 88.6843 551.393C88.6843 593.77 124.064 628.249 167.551 628.249C211.038 628.249 246.418 593.77 246.418 551.393C246.418 509.017 211.038 474.537 167.551 474.537ZM167.551 595.042C142.37 595.042 121.891 575.464 121.891 551.393C121.891 527.323 142.37 507.744 167.551 507.744C192.732 507.744 213.211 527.323 213.211 551.393C213.211 575.464 192.732 595.042 167.551 595.042Z" fill="#9BFF9F"/>
<path d="M682.259 578.982C654.792 578.982 632.449 600.847 632.449 627.714C632.449 654.59 654.792 676.455 682.259 676.455C709.727 676.455 732.07 654.59 732.07 627.714C732.07 600.847 709.727 578.982 682.259 578.982ZM682.259 643.248C673.098 643.248 665.656 636.276 665.656 627.714C665.656 619.153 673.098 612.189 682.259 612.189C691.421 612.189 698.863 619.153 698.863 627.714C698.863 636.276 691.421 643.248 682.259 643.248Z" fill="#9BFF9F"/>
</g>
<defs>
<clipPath id="clip0_460_56">
<rect width="800" height="800" fill="white"/>
</clipPath>
</defs>
</svg>
