<svg width="170" height="149" viewBox="0 0 170 149" fill="none" xmlns="http://www.w3.org/2000/svg">
<g clip-path="url(#clip0_417_13)">
<path d="M23.4202 0.405853C22.8973 0.784333 22.8973 1.13393 23.2165 10.0654C23.4202 16.0588 23.4202 19.4925 23.2454 19.8406C22.7225 20.8301 21.7041 20.7708 19.6384 19.6369C17.9801 18.7051 17.6016 18.5896 16.9906 18.8799C16.5832 19.0547 16.2047 19.3739 16.1181 19.608C16.0314 19.8406 16.875 24.3793 18.009 29.6461L20.0746 39.2768V48.0928V56.8784L21.5004 61.1268C22.2862 63.4539 23.3624 66.2188 23.8564 67.2372C26.5042 72.5329 30.9548 77.6523 35.4358 80.6208C37.8222 82.1636 37.851 82.1925 37.7051 83.2109C37.6185 83.7642 37.5303 84.5196 37.5303 84.8403C37.5303 85.4514 37.3555 85.4802 33.1086 85.6262C29.6461 85.7432 28.1914 85.9165 26.6213 86.412C23.8579 87.2845 20.8894 89.0598 18.9985 91.0374C16.4373 93.7095 2.99592 111.661 1.89088 113.901C0.1748 117.335 0 118.586 0 126.411C0 131.706 0.117041 133.83 0.436241 135.139C1.6872 140.085 5.32456 144.595 9.86328 146.864C13.6739 148.784 13.3836 149.22 13.3836 141.395C13.3836 134.064 13.4702 133.54 15.0419 132.435C16.3795 131.503 17.5438 131.387 19.0274 132.056C21.4426 133.103 21.5293 133.453 21.5293 141.745V148.958H50.0414H78.5536V141.743C78.5536 135.139 78.6114 134.47 79.1358 133.626C80.2712 131.735 82.191 131.153 84.1989 132.056C86.6142 133.103 86.7008 133.453 86.7008 141.714V148.872L88.3014 148.61C93.8874 147.738 99.0371 143.868 101.51 138.689C103.255 134.994 103.43 133.947 103.43 126.557C103.43 121.291 103.313 119.633 102.906 118.119C102.237 115.56 100.636 112.475 99.0067 110.554L97.6387 108.954H92.8097C88.6783 108.954 87.6599 108.867 85.5365 108.285C75.585 105.55 67.9045 97.695 65.4026 87.6873C64.4708 83.8463 64.5012 78.0277 65.5485 74.1593C66.3632 71.0175 68.0793 67.3512 69.9702 64.7338C72.4432 61.2712 77.1567 57.3724 80.7637 55.8022L82.3354 55.1334V41.3121C82.3354 26.0969 82.3065 25.8339 80.5022 22.1099C79.2224 19.4621 75.585 15.8263 72.9965 14.6042C69.3302 12.8592 68.7785 12.7999 56.1518 12.771H44.6591L42.1861 9.54105C40.8181 7.76721 39.3634 6.04961 38.9272 5.73041C38.1991 5.17713 38.1125 5.17714 37.4148 5.64378C37.0074 5.90522 36.6578 6.34145 36.6578 6.63329C36.6578 7.39026 36.0757 7.85538 35.1743 7.85538C34.5922 7.85538 33.1375 6.83697 29.6461 3.92769C27.0271 1.77537 24.6711 9.83693e-06 24.4386 9.83693e-06C24.1771 -0.00151016 23.712 0.173292 23.4202 0.405853Z" fill="#AF4C4C"/>
<path d="M106.073 18.5978C99.7937 19.5181 90.6953 22.9147 84.9135 26.5922C81.7406 28.5733 77.3665 32.2508 73.9099 35.932C62.6963 47.8183 57.3345 63.8736 59.0996 80.0768C60.9348 96.4906 70.1032 111.7 83.8559 120.825C108.686 137.449 142.54 130.871 159.893 106.041C166.523 96.6311 169.769 86.1603 169.769 74.0634C169.769 57.8639 163.774 43.9966 151.923 32.8902C139.718 21.4253 122.718 16.1215 106.073 18.5978ZM122.718 40.8107C124.977 41.3762 127.94 42.4369 129.278 43.1465L131.747 44.4216L107.554 66.1392C94.2956 78.0957 83.222 87.6461 82.9383 87.3615C81.8107 86.2306 80.1855 78.2362 80.1855 74.0634C80.1855 58.7103 90.8354 44.8467 105.649 40.8846C110.657 39.5356 117.71 39.4653 122.718 40.8107ZM147.265 65.0046C148.816 70.312 148.392 80.2837 146.491 85.3805C141.129 99.4585 128.718 108.373 114.398 108.373C109.813 108.373 103.324 106.958 99.8674 105.191L97.8222 104.06L121.591 82.6233C134.71 70.8109 145.643 61.2605 145.853 61.401C146.067 61.5377 146.701 63.164 147.265 65.0046Z" fill="#AF4C4C"/>
</g>
<defs>
<clipPath id="clip0_417_13">
<rect width="170" height="149" fill="white"/>
</clipPath>
</defs>
</svg>
