<svg width="2367" height="1622" viewBox="0 0 2367 1622" fill="none" xmlns="http://www.w3.org/2000/svg">
<g clip-path="url(#clip0_303_121)">
<rect x="662.383" y="194.216" width="215.55" height="603.539" rx="107.775" fill="#9BFF9F"/>
<rect x="719.862" y="266.066" width="100.59" height="229.92" rx="50.2949" fill="#459748"/>
<rect x="1150.96" y="194.216" width="215.55" height="603.539" rx="107.775" fill="#9BFF9F"/>
<rect x="1208.44" y="266.066" width="100.59" height="229.92" rx="50.2949" fill="#459748"/>
<path d="M1259.83 988.455C1226.63 1280.65 802.824 1280.4 764.965 988.768V988.768C763.744 979.365 771.062 971 780.543 971L1244.24 971C1253.61 971 1260.88 979.151 1259.83 988.455V988.455Z" fill="#9BFF9F"/>
</g>
<rect x="12.5" y="12.5" width="1999.19" height="1249" rx="68.9055" stroke="#9BFF9F" stroke-width="25"/>
<g clip-path="url(#clip1_303_121)">
<path d="M2258.1 977.593L1781.19 720.029L1480.59 1276.63L1957.49 1534.2L2258.1 977.593Z" fill="#9BFF9F"/>
<path d="M2147.15 1403.41L2152.66 1288.97C2153.83 1271.91 2141.01 1256.94 2125.19 1256.44C2109.38 1255.94 2095.66 1269.44 2094.48 1286.5L2091.62 1357.33L2082.8 1355.78L2087.51 1266.65C2088.11 1247.67 2075.29 1232.71 2059.47 1232.21C2043.66 1231.71 2029.93 1245.21 2028.76 1262.26L2024.82 1346.99L2016.01 1345.44L2020.82 1253.15C2021.99 1236.09 2009.16 1221.12 1993.35 1220.62C1977.53 1220.12 1963.81 1233.62 1962.64 1250.68L1958.6 1338.57L1951.13 1334.53L1951.8 1333.29L1960.75 1149.94L1961.25 1134.13L1962.52 1113.91C1963.7 1096.85 1950.87 1081.88 1935.06 1081.38C1921.16 1080.31 1909.45 1090.07 1906.46 1104.54L1904.72 1119.68L1894.4 1326.41L1888.07 1326.21L1865.26 1246.34C1860.11 1229.08 1842.68 1219.67 1827.34 1224.25C1811.99 1228.83 1802.58 1246.26 1807.73 1263.52L1859.65 1444.36L1867.57 1474.37C1868.71 1478.2 1871.1 1482.71 1874.17 1485.97C1896.63 1536.71 1922.11 1552.07 1922.11 1552.07L2071.91 1560.6C2138.03 1491.77 2147.15 1403.41 2147.15 1403.41Z" fill="#459748"/>
<path d="M2134.22 1010.41L1821.68 841.616L1808.23 866.519L2120.77 1035.31L2134.22 1010.41Z" fill="#459748"/>
<path d="M2093.2 1086.37L1780.65 917.573L1767.2 942.477L2079.75 1111.27L2093.2 1086.37Z" fill="#459748"/>
</g>
<defs>
<clipPath id="clip0_303_121">
<rect x="25" y="25" width="1974.19" height="1224" rx="56.4055" fill="white"/>
</clipPath>
<clipPath id="clip1_303_121">
<rect width="665.138" height="665.138" fill="white" transform="translate(1781 719.927) rotate(28.3721)"/>
</clipPath>
</defs>
</svg>
