<svg width="2342" height="1597" viewBox="0 0 2342 1597" fill="none" xmlns="http://www.w3.org/2000/svg">
<g clip-path="url(#clip0_303_121)">
<rect width="1974.19" height="1224" rx="56.4055" fill="url(#paint0_linear_303_121)"/>
<rect x="637.383" y="169.216" width="215.55" height="603.539" rx="107.775" fill="black"/>
<rect x="694.862" y="241.066" width="100.59" height="229.92" rx="50.2949" fill="url(#paint1_linear_303_121)"/>
<rect x="1125.96" y="169.216" width="215.55" height="603.539" rx="107.775" fill="black"/>
<rect x="1183.44" y="241.066" width="100.59" height="229.92" rx="50.2949" fill="url(#paint2_linear_303_121)"/>
<path d="M1234.83 963.455C1201.63 1255.65 777.824 1255.4 739.965 963.768C738.744 954.365 746.062 946 755.543 946L1219.24 946C1228.61 946 1235.88 954.151 1234.83 963.455Z" fill="#FFA9A9"/>
</g>
<g clip-path="url(#clip1_303_121)">
<path d="M2233.1 952.593L1756.19 695.029L1455.59 1251.63L1932.49 1509.2L2233.1 952.593Z" fill="#E8EAE9"/>
<path d="M2122.15 1378.41L2127.66 1263.97C2128.83 1246.91 2116.01 1231.94 2100.19 1231.44C2084.38 1230.94 2070.66 1244.44 2069.48 1261.5L2066.62 1332.33L2057.8 1330.78L2062.51 1241.65C2063.11 1222.67 2050.29 1207.71 2034.47 1207.21C2018.66 1206.71 2004.93 1220.21 2003.76 1237.26L1999.82 1321.99L1991.01 1320.44L1995.82 1228.15C1996.99 1211.09 1984.16 1196.12 1968.35 1195.62C1952.53 1195.12 1938.81 1208.62 1937.64 1225.68L1933.6 1313.57L1926.13 1309.53L1926.8 1308.29L1935.75 1124.94L1936.25 1109.13L1937.52 1088.91C1938.7 1071.85 1925.87 1056.88 1910.06 1056.38C1896.16 1055.31 1884.45 1065.07 1881.46 1079.54L1879.72 1094.68L1869.4 1301.41L1863.07 1301.21L1840.26 1221.34C1835.11 1204.08 1817.68 1194.67 1802.34 1199.25C1786.99 1203.83 1777.58 1221.26 1782.73 1238.52L1834.65 1419.36L1842.57 1449.37C1843.71 1453.2 1846.1 1457.71 1849.17 1460.97C1871.63 1511.71 1897.11 1527.07 1897.11 1527.07L2046.91 1535.6C2113.03 1466.77 2122.15 1378.41 2122.15 1378.41Z" fill="#F7B044"/>
<path d="M2109.22 985.411L1796.68 816.616L1783.23 841.519L2095.77 1010.31L2109.22 985.411Z" fill="#9060C3"/>
<path d="M2068.2 1061.37L1755.65 892.573L1742.2 917.477L2054.75 1086.27L2068.2 1061.37Z" fill="#9060C3"/>
</g>
<defs>
<linearGradient id="paint0_linear_303_121" x1="1125.29" y1="-70.5069" x2="987.097" y2="1224" gradientUnits="userSpaceOnUse">
<stop stop-color="#DEDAFE"/>
<stop offset="0.37" stop-color="#BCB8FF"/>
<stop offset="1" stop-color="#7874FE"/>
</linearGradient>
<linearGradient id="paint1_linear_303_121" x1="745.157" y1="241.066" x2="745.157" y2="470.986" gradientUnits="userSpaceOnUse">
<stop stop-color="#C2C2C1"/>
<stop offset="0.395" stop-color="#868685"/>
<stop offset="0.695" stop-color="#616161"/>
<stop offset="1" stop-color="#272727"/>
</linearGradient>
<linearGradient id="paint2_linear_303_121" x1="1233.74" y1="241.066" x2="1233.74" y2="470.986" gradientUnits="userSpaceOnUse">
<stop stop-color="#C2C2C1"/>
<stop offset="0.395" stop-color="#868685"/>
<stop offset="0.695" stop-color="#616161"/>
<stop offset="1" stop-color="#272727"/>
</linearGradient>
<clipPath id="clip0_303_121">
<rect width="1974.19" height="1224" rx="56.4055" fill="white"/>
</clipPath>
<clipPath id="clip1_303_121">
<rect width="665.138" height="665.138" fill="white" transform="translate(1756 694.927) rotate(28.3721)"/>
</clipPath>
</defs>
</svg>
