<svg width="22" height="22" viewBox="0 0 22 22" fill="none" xmlns="http://www.w3.org/2000/svg">
<path d="M11.6875 10.0833C11.6875 9.70365 11.3797 9.39584 11 9.39584C10.6203 9.39584 10.3125 9.70365 10.3125 10.0833V11.9167C10.3125 12.2964 10.6203 12.6042 11 12.6042C11.3797 12.6042 11.6875 12.2964 11.6875 11.9167V10.0833Z" fill="#B7B7B7"/>
<path fill-rule="evenodd" clip-rule="evenodd" d="M12.581 1.85816L14.812 2.22999C15.8714 2.40655 16.7297 2.54959 17.4012 2.74948C18.1004 2.95765 18.6781 3.24928 19.1229 3.77434C19.5676 4.29939 19.7604 4.91719 19.8508 5.64114C19.9375 6.33628 19.9375 7.20642 19.9375 8.28048V13.7195C19.9375 14.7935 19.9375 15.6637 19.8508 16.3588C19.7604 17.0828 19.5676 17.7006 19.1229 18.2256C18.6781 18.7507 18.1004 19.0423 17.4012 19.2505C16.7297 19.4504 15.8714 19.5934 14.8121 19.7699L12.581 20.1418C11.6339 20.2997 10.8509 20.4302 10.2254 20.4453C9.56945 20.4612 8.96133 20.3558 8.45393 19.9259C8.02563 19.5631 7.81353 19.0914 7.70235 18.5625H7.28413C6.24571 18.5625 5.3971 18.5625 4.72715 18.4725C4.02686 18.3783 3.41972 18.1746 2.93508 17.6899C2.45044 17.2053 2.24669 16.5982 2.15254 15.8978C2.06246 15.2279 2.06248 14.3793 2.0625 13.3409V8.65911C2.06248 7.62069 2.06246 6.77208 2.15254 6.10214C2.24669 5.40185 2.45044 4.79471 2.93508 4.31007C3.41972 3.82543 4.02686 3.62168 4.72715 3.52752C5.3971 3.43745 6.24569 3.43747 7.28412 3.43749H7.70235C7.81352 2.90854 8.02563 2.43687 8.45393 2.07405C8.96133 1.64422 9.56945 1.5388 10.2254 1.55464C10.8509 1.56975 11.634 1.7003 12.581 1.85816ZM7.5625 15.8905C7.56249 16.3635 7.56247 16.7962 7.57298 17.1875H7.33333C6.2336 17.1875 5.47795 17.186 4.91036 17.1098C4.36255 17.0361 4.09393 16.9042 3.90736 16.7176C3.72078 16.5311 3.58892 16.2625 3.51527 15.7146C3.43897 15.147 3.4375 14.3914 3.4375 13.2917V8.70832C3.4375 7.60859 3.43897 6.85294 3.51527 6.28535C3.58892 5.73753 3.72078 5.46892 3.90736 5.28234C4.09393 5.09577 4.36255 4.96391 4.91036 4.89026C5.47795 4.81396 6.2336 4.81249 7.33333 4.81249H7.57298C7.56247 5.20382 7.56249 5.63648 7.5625 6.10949V15.8905ZM10.1922 2.92924C9.69513 2.91723 9.48365 3.00382 9.34267 3.1232C9.20178 3.24258 9.08159 3.43695 9.01172 3.92925C8.93914 4.44058 8.9375 5.13604 8.9375 6.16168V15.8383C8.9375 16.8639 8.93914 17.5594 9.01172 18.0707C9.08159 18.563 9.20178 18.7574 9.34267 18.8767C9.48365 18.9962 9.69513 19.0827 10.1922 19.0707C10.7085 19.0582 11.3948 18.9456 12.4064 18.7769L14.5412 18.4211C15.656 18.2353 16.4292 18.1052 17.0088 17.9327C17.5699 17.7655 17.8668 17.5811 18.0737 17.3368C18.2806 17.0926 18.4138 16.7695 18.4863 16.1885C18.5612 15.5885 18.5625 14.8043 18.5625 13.6741V8.32585C18.5625 7.19558 18.5612 6.41152 18.4863 5.81149C18.4138 5.2305 18.2806 4.90735 18.0737 4.6631C17.8668 4.41885 17.5699 4.23438 17.0088 4.06731C16.4292 3.89478 15.656 3.76464 14.5412 3.57883L12.4064 3.22304C11.3948 3.05443 10.7085 2.94171 10.1922 2.92924Z" fill="#B7B7B7"/>
</svg>
