<svg width="21" height="21" viewBox="0 0 21 21" fill="none" xmlns="http://www.w3.org/2000/svg">
<path fill-rule="evenodd" clip-rule="evenodd" d="M19.5085 5.52198C19.8416 5.66475 19.9959 6.05055 19.8531 6.38368L19.2499 6.12517C19.8531 6.38368 19.8532 6.38353 19.8531 6.38368L19.8525 6.38515L19.8516 6.38733L19.8488 6.39377L19.8394 6.41483C19.8315 6.43245 19.8203 6.45713 19.8058 6.48836C19.7767 6.55079 19.7341 6.63945 19.6777 6.75006C19.5649 6.97113 19.3966 7.28076 19.1699 7.64458C18.7975 8.24224 18.2634 8.99308 17.5542 9.7391L18.4015 10.5864C18.6577 10.8427 18.6577 11.2582 18.4015 11.5145C18.1452 11.7708 17.7297 11.7708 17.4734 11.5145L16.5979 10.639C16.0206 11.1226 15.3587 11.5764 14.6081 11.9494L15.425 13.2048C15.6227 13.5085 15.5367 13.915 15.2329 14.1127C14.9291 14.3104 14.5226 14.2244 14.3249 13.9206L13.3718 12.4559C12.69 12.6786 11.9516 12.83 11.1562 12.8842V14.4377C11.1562 14.8001 10.8623 15.0939 10.4999 15.0939C10.1375 15.0939 9.84366 14.8001 9.84366 14.4377V12.8842C9.07279 12.8316 8.35545 12.6879 7.69109 12.4763L6.75128 13.9206C6.55361 14.2244 6.1471 14.3105 5.84331 14.1128C5.53953 13.9151 5.4535 13.5086 5.65116 13.2048L6.44953 11.9779C5.69319 11.6085 5.02584 11.1566 4.44362 10.6736L3.60276 11.5145C3.34648 11.7708 2.93097 11.7708 2.67468 11.5145C2.41841 11.2582 2.41841 10.8427 2.67468 10.5865L3.48298 9.77813C2.76149 9.02589 2.21835 8.26591 1.83993 7.6605C1.60986 7.29245 1.43903 6.97886 1.32465 6.7549C1.26742 6.64284 1.22421 6.553 1.1947 6.48973C1.17994 6.45809 1.16859 6.43306 1.16061 6.41521L1.15117 6.39388L1.14833 6.38736L1.14738 6.38517L1.14702 6.38433C1.14696 6.38418 1.14674 6.38368 1.74993 6.12517L1.14702 6.38433C1.00426 6.0512 1.15829 5.66475 1.49142 5.52198C1.82428 5.37933 2.20972 5.53327 2.35277 5.86584C2.35272 5.86572 2.35282 5.86595 2.35277 5.86584L2.3536 5.86775L2.35892 5.87976C2.36408 5.8913 2.37248 5.90984 2.38413 5.93484C2.40747 5.98485 2.44384 6.06064 2.49354 6.15796C2.59302 6.35276 2.74542 6.6329 2.95288 6.96482C3.36904 7.63059 4.00013 8.49387 4.86116 9.29408C5.61882 9.99819 6.54727 10.6468 7.65769 11.074C8.49287 11.3953 9.43723 11.5939 10.4999 11.5939C11.5864 11.5939 12.5493 11.3864 13.3984 11.0521C14.5021 10.6177 15.4242 9.96485 16.1758 9.25943C17.0242 8.46314 17.646 7.60843 18.056 6.95048C18.2604 6.62244 18.4104 6.3459 18.5084 6.15375C18.5574 6.05776 18.5932 5.98304 18.6162 5.93376C18.6277 5.90912 18.636 5.89087 18.6411 5.8795L18.6463 5.86771L18.6468 5.86666C18.6467 5.86675 18.6468 5.86658 18.6468 5.86666M19.5085 5.52198C19.1754 5.37925 18.7896 5.5337 18.6468 5.86666L19.5085 5.52198ZM2.35277 5.86584C2.35272 5.86572 2.35282 5.86595 2.35277 5.86584V5.86584Z" fill="white"/>
</svg>
