<svg width="23" height="23" viewBox="0 0 23 23" fill="none" xmlns="http://www.w3.org/2000/svg">
<path fill-rule="evenodd" clip-rule="evenodd" d="M11.5 7.90625C9.51522 7.90625 7.90625 9.51522 7.90625 11.5C7.90625 13.4848 9.51522 15.0937 11.5 15.0937C13.4848 15.0937 15.0937 13.4848 15.0937 11.5C15.0937 9.51522 13.4848 7.90625 11.5 7.90625ZM9.34375 11.5C9.34375 10.3092 10.3092 9.34375 11.5 9.34375C12.6908 9.34375 13.6562 10.3092 13.6562 11.5C13.6562 12.6908 12.6908 13.6562 11.5 13.6562C10.3092 13.6562 9.34375 12.6908 9.34375 11.5Z" fill="white"/>
<path fill-rule="evenodd" clip-rule="evenodd" d="M11.5003 3.11462C7.17428 3.11462 4.26039 5.70615 2.5692 7.90328L2.5387 7.9429C2.15623 8.43963 1.80397 8.89713 1.56499 9.43809C1.30906 10.0174 1.19824 10.6488 1.19824 11.5C1.19824 12.3513 1.30906 12.9827 1.56499 13.562C1.80397 14.103 2.15623 14.5605 2.53871 15.0572L2.5692 15.0968C4.26039 17.2939 7.17428 19.8855 11.5003 19.8855C15.8263 19.8855 18.7402 17.2939 20.4314 15.0968L20.4619 15.0572C20.8445 14.5605 21.1966 14.103 21.4357 13.562C21.6916 12.9827 21.8024 12.3513 21.8024 11.5C21.8024 10.6488 21.6916 10.0174 21.4357 9.43809C21.1966 8.89712 20.8445 8.43962 20.4619 7.94288L20.4314 7.90328C18.7402 5.70615 15.8263 3.11462 11.5003 3.11462ZM3.70833 8.7801C5.26986 6.75142 7.81109 4.55212 11.5003 4.55212C15.1895 4.55212 17.7308 6.75142 19.2923 8.7801C19.7127 9.32615 19.9589 9.65247 20.1207 10.0189C20.2721 10.3615 20.3649 10.7802 20.3649 11.5C20.3649 12.2198 20.2721 12.6385 20.1207 12.9811C19.9589 13.3476 19.7127 13.6739 19.2923 14.22C17.7308 16.2487 15.1895 18.448 11.5003 18.448C7.81109 18.448 5.26986 16.2487 3.70833 14.22C3.28802 13.6739 3.04183 13.3476 2.87989 12.9811C2.72855 12.6385 2.63574 12.2198 2.63574 11.5C2.63574 10.7802 2.72855 10.3615 2.87989 10.0189C3.04183 9.65247 3.28801 9.32615 3.70833 8.7801Z" fill="white"/>
</svg>
