<svg width="800" height="800" viewBox="0 0 800 800" fill="none" xmlns="http://www.w3.org/2000/svg">
<path d="M535.35 81.8C544.724 91.1764 549.989 103.892 549.989 117.15C549.989 130.408 544.724 143.124 535.35 152.5L287.85 400L535.35 647.5C544.458 656.93 549.498 669.56 549.384 682.67C549.27 695.78 544.011 708.321 534.741 717.591C525.47 726.861 512.93 732.12 499.82 732.234C486.71 732.348 474.08 727.308 464.65 718.2L181.8 435.35C172.426 425.974 167.161 413.258 167.161 400C167.161 386.742 172.426 374.026 181.8 364.65L464.65 81.8C474.026 72.4264 486.742 67.1606 500 67.1606C513.258 67.1606 525.974 72.4264 535.35 81.8Z" fill="#83FF72"/>
</svg>
