<svg width="25" height="18" viewBox="0 0 25 18" fill="none" xmlns="http://www.w3.org/2000/svg">
<path d="M24.2886 0.350769L12.358 7.93297L0.427297 0.350769C0.165561 0.592058 0 0.93632 0 1.31819V16.2231C0 16.6069 0.167147 16.9525 0.431092 17.1939L12.3579 9.61559L24.6142 17.5413H24.7158V1.31819C24.7159 0.93632 24.5504 0.592058 24.2886 0.350769Z" fill="#D6CED1"/>
<path d="M1.31826 17.5413H24.6144L16.2945 8.77068H8.42145L0.431152 17.194C0.665871 17.4088 0.976941 17.5413 1.31826 17.5413Z" fill="#C2B8B9"/>
<path d="M1.31815 5.66095e-05C0.975018 5.66095e-05 0.662418 0.134012 0.427246 0.350832L11.4485 11.9162C11.9487 12.4411 12.7671 12.4411 13.2673 11.9162L24.2886 0.350775C24.0534 0.133955 23.7408 0 23.3977 0L1.31815 5.66095e-05Z" fill="#ECE7EA"/>
</svg>
