<svg width="37" height="37" viewBox="0 0 37 37" fill="none" xmlns="http://www.w3.org/2000/svg">
<path d="M18.5 32.375C26.163 32.375 32.375 26.163 32.375 18.5C32.375 10.837 26.163 4.625 18.5 4.625C10.837 4.625 4.625 10.837 4.625 18.5C4.625 26.163 10.837 32.375 18.5 32.375Z" fill="#226A38" fill-opacity="0.17"/>
<path d="M18.5003 8.17081C18.5003 7.95099 18.5003 7.84107 18.5715 7.77279C18.6429 7.70451 18.7494 7.70909 18.9627 7.71823C20.6966 7.79257 22.3893 8.28414 23.8961 9.15412C25.5366 10.1013 26.899 11.4636 27.8462 13.1041C28.7934 14.7447 29.292 16.6056 29.292 18.5C29.292 20.3944 28.7934 22.2553 27.8462 23.8958C26.899 25.5363 25.5366 26.8987 23.8961 27.8459C22.2557 28.7931 20.3947 29.2916 18.5003 29.2916C16.6059 29.2916 14.745 28.7931 13.1045 27.8459C11.5976 26.9759 10.3255 25.7557 9.39422 24.2913C9.27969 24.1112 9.22242 24.0212 9.24593 23.9253C9.26942 23.8294 9.36461 23.7745 9.55499 23.6646L18.2691 18.6335C18.3819 18.5683 18.4383 18.5357 18.4693 18.4821C18.5003 18.4284 18.5003 18.3632 18.5003 18.233V8.17081Z" fill="#2ED984"/>
</svg>
