<svg width="148" height="149" viewBox="0 0 148 149" fill="none" xmlns="http://www.w3.org/2000/svg">
<g clip-path="url(#clip0_417_10)">
<path d="M23.4202 0.405853C22.8973 0.784333 22.8973 1.13393 23.2165 10.0654C23.4202 16.0588 23.4202 19.4925 23.2454 19.8406C22.7225 20.8301 21.7041 20.7708 19.6384 19.6369C17.9801 18.7051 17.6016 18.5896 16.9906 18.8799C16.5832 19.0547 16.2047 19.3739 16.1181 19.608C16.0314 19.8406 16.875 24.3793 18.009 29.6461L20.0746 39.2768V48.0928V56.8784L21.5004 61.1268C22.2862 63.4539 23.3624 66.2188 23.8564 67.2372C26.5042 72.5329 30.9548 77.6523 35.4358 80.6208C37.8222 82.1636 37.851 82.1925 37.7051 83.2109C37.6185 83.7642 37.5303 84.5196 37.5303 84.8403C37.5303 85.4514 37.3555 85.4802 33.1086 85.6262C29.6461 85.7432 28.1914 85.9165 26.6213 86.412C23.8579 87.2845 20.8894 89.0598 18.9985 91.0374C16.4373 93.7095 2.99592 111.661 1.89088 113.901C0.1748 117.335 0 118.586 0 126.411C0 131.706 0.117041 133.83 0.436241 135.139C1.6872 140.085 5.32456 144.595 9.86328 146.864C13.6739 148.784 13.3836 149.22 13.3836 141.395C13.3836 134.064 13.4702 133.54 15.0419 132.435C16.3795 131.503 17.5438 131.387 19.0274 132.056C21.4426 133.103 21.5293 133.453 21.5293 141.745V148.958H50.0414H78.5536V141.743C78.5536 135.139 78.6114 134.47 79.1358 133.626C80.2712 131.735 82.191 131.153 84.1989 132.056C86.6142 133.103 86.7008 133.453 86.7008 141.714V148.872L88.3014 148.61C93.8874 147.738 99.0371 143.868 101.51 138.689C103.255 134.994 103.43 133.947 103.43 126.557C103.43 121.291 103.313 119.633 102.906 118.119C102.237 115.56 100.636 112.475 99.0067 110.554L97.6387 108.954H92.8097C88.6783 108.954 87.6599 108.867 85.5365 108.285C75.585 105.55 67.9045 97.695 65.4026 87.6873C64.4708 83.8463 64.5012 78.0277 65.5485 74.1593C66.3632 71.0175 68.0793 67.3512 69.9702 64.7338C72.4432 61.2712 77.1567 57.3724 80.7637 55.8022L82.3354 55.1334V41.3121C82.3354 26.0969 82.3065 25.8339 80.5022 22.1099C79.2224 19.4621 75.585 15.8263 72.9965 14.6042C69.3302 12.8592 68.7785 12.7999 56.1518 12.771H44.6591L42.1861 9.54105C40.8181 7.76721 39.3634 6.04961 38.9272 5.73041C38.1991 5.17713 38.1125 5.17714 37.4148 5.64378C37.0074 5.90522 36.6578 6.34145 36.6578 6.63329C36.6578 7.39026 36.0757 7.85538 35.1743 7.85538C34.5922 7.85538 33.1375 6.83697 29.6461 3.92769C27.0271 1.77537 24.6711 9.83693e-06 24.4386 9.83693e-06C24.1771 -0.00151016 23.712 0.173292 23.4202 0.405853Z" fill="#4CAF50"/>
<path fill-rule="evenodd" clip-rule="evenodd" d="M117.161 29.6389C117.161 22.0556 109.669 17 103.814 17C99.7397 17 99.4212 20.094 98.7943 26.2011C98.5162 28.8806 98.1826 32.1363 97.4444 35.9583C95.493 46.0796 88.7489 59.0117 82.298 62.8792V92.8333C82.2778 104.208 86.0694 108 102.5 108H121.575C132.576 108 135.24 100.755 136.231 98.0709L136.296 97.8889C136.873 96.3419 138.106 95.1235 139.522 93.7433C141.089 92.1963 142.879 90.4421 144.208 87.7778C145.781 84.6282 145.573 81.8274 145.386 79.335C145.27 77.8234 145.164 76.4281 145.472 75.1389C145.796 73.7739 146.21 72.7375 146.61 71.7466C147.333 69.9468 148 68.2785 148 65.0278C148 57.4444 144.218 52.399 136.296 52.399H115.139C115.139 52.399 117.161 37.2222 117.161 29.6389ZM64.5833 57.4444C62.5721 57.4444 60.6433 58.2434 59.2211 59.6655C57.799 61.0877 57 63.0166 57 65.0278V100.417C57 102.428 57.799 104.357 59.2211 105.779C60.6433 107.201 62.5721 108 64.5833 108C66.5946 108 68.5234 107.201 69.9456 105.779C71.3677 104.357 72.1667 102.428 72.1667 100.417V65.0278C72.1667 63.0166 71.3677 61.0877 69.9456 59.6655C68.5234 58.2434 66.5946 57.4444 64.5833 57.4444Z" fill="#4CAF50"/>
</g>
<defs>
<clipPath id="clip0_417_10">
<rect width="148" height="149" fill="white"/>
</clipPath>
</defs>
</svg>
