<svg width="50" height="50" viewBox="0 0 50 50" fill="none" xmlns="http://www.w3.org/2000/svg">
<g clip-path="url(#clip0_1_357)">
<path fill-rule="evenodd" clip-rule="evenodd" d="M19.7251 14.1689C18.303 14.1689 17.1489 15.323 17.1489 16.745V32.202C17.1489 33.6241 18.303 34.7782 19.7251 34.7782C21.1471 34.7782 22.3013 33.6241 22.3013 32.202V16.745C22.3013 15.323 21.1471 14.1689 19.7251 14.1689ZM32.6059 16.745V32.202C32.6059 33.6241 31.4518 34.7782 30.0297 34.7782C28.6077 34.7782 27.4536 33.6241 27.4536 32.202V16.745C27.4536 15.323 28.6077 14.1689 30.0297 14.1689C31.4518 14.1689 32.6059 15.323 32.6059 16.745Z" fill="#859EB5"/>
</g>
<defs>
<clipPath id="clip0_1_357">
<rect width="20.6093" height="20.6093" fill="white" transform="translate(14.5728 14.1689)"/>
</clipPath>
</defs>
</svg>
