<svg width="50" height="50" viewBox="0 0 50 50" fill="none" xmlns="http://www.w3.org/2000/svg">
<path d="M29.973 13.5744V20.3121C29.973 20.8075 29.5766 21.2534 29.0317 21.2534H18.4793C17.9839 21.2534 17.538 20.857 17.538 20.3121V13.5744H15.5564C14.4665 13.5744 13.5747 14.4662 13.5747 15.5561V33.391C13.5747 34.481 14.4665 35.3727 15.5564 35.3727H33.3913C34.4813 35.3727 35.373 34.481 35.373 33.391V17.1414L31.806 13.5744H29.973ZM33.4409 32.4498C33.4409 32.9452 33.0446 33.391 32.4996 33.391H16.4977C16.0022 33.391 15.5564 32.9947 15.5564 32.4498V24.1763C15.5564 23.6809 15.9527 23.235 16.4977 23.235H32.4996C32.995 23.235 33.4409 23.6313 33.4409 24.1763V32.4498Z" fill="#2ED984"/>
<path d="M23.8794 18.3304C23.8794 18.8258 24.2757 19.2717 24.8207 19.2717H27.0996C27.595 19.2717 28.0409 18.8754 28.0409 18.3304V13.5744H23.9289L23.8794 18.3304Z" fill="#2ED984"/>
</svg>
