<svg width="800" height="800" viewBox="0 0 800 800" fill="none" xmlns="http://www.w3.org/2000/svg">
<g clip-path="url(#clip0_329_125)">
<path d="M320 53.4H373.4H426.6V0H373.4H320H266.6H213.4V53.4H266.6H320Z" fill="#B5B5B5"/>
<path d="M213.4 106.6V53.4H160H106.6V106.6H160H213.4Z" fill="#B5B5B5"/>
<path d="M480 106.6H533.4V53.4H480H426.6V106.6H480Z" fill="#B5B5B5"/>
<path d="M106.6 160V106.6H53.3999V160V213.4H106.6V160Z" fill="#B5B5B5"/>
<path d="M533.4 213.4H586.6V160V106.6H533.4V160V213.4Z" fill="#B5B5B5"/>
<path d="M213.4 213.4H160V266.8H213.4V213.4Z" fill="#B5B5B5"/>
<path d="M266.8 160H213.4V213.4H266.8V160Z" fill="#B5B5B5"/>
<path d="M586.6 320V373.4V426.6H640V373.4V320V266.6V213.4H586.6V266.6V320Z" fill="#B5B5B5"/>
<path d="M53.4 320V266.6V213.4H0V266.6V320V373.4V426.6H53.4V373.4V320Z" fill="#B5B5B5"/>
<path d="M106.6 426.6H53.3999V480V533.4H106.6V480V426.6Z" fill="#B5B5B5"/>
<path d="M586.6 480V426.6H533.4V480V533.4H586.6V480Z" fill="#B5B5B5"/>
<path d="M160 533.4H106.6V586.6H160H213.4V533.4H160Z" fill="#B5B5B5"/>
<path d="M426.6 533.4V586.6H480H533.4V533.4H480H426.6Z" fill="#B5B5B5"/>
<path d="M320 586.6H266.6H213.4V640H266.6H320H373.4H426.6V586.6H373.4H320Z" fill="#B5B5B5"/>
<path d="M640 586.6H586.6V640H640V586.6Z" fill="#B5B5B5"/>
<path d="M693.4 640H640V693.4H693.4V640Z" fill="#B5B5B5"/>
<path d="M746.8 693.4H693.4V746.8H746.8V693.4Z" fill="#B5B5B5"/>
<path d="M800 746.6H746.6V800H800V746.6Z" fill="#B5B5B5"/>
</g>
<defs>
<clipPath id="clip0_329_125">
<rect width="800" height="800" fill="white"/>
</clipPath>
</defs>
</svg>
