<svg width="26" height="24" viewBox="0 0 26 24" fill="none" xmlns="http://www.w3.org/2000/svg">
<path d="M24.568 10.7933L1.90134 0.126645C1.6731 0.0192456 1.41907 -0.0212042 1.16876 0.009993C0.918441 0.0411902 0.682112 0.142755 0.48721 0.302892C0.292309 0.463029 0.146833 0.675169 0.0676744 0.914677C-0.0114842 1.15419 -0.0210774 1.41124 0.0400093 1.65598L1.65601 8.12131L12 12L1.65601 15.8786L0.0400093 22.344C-0.0222267 22.5889 -0.0134342 22.8465 0.0653583 23.0866C0.144151 23.3267 0.289685 23.5394 0.484938 23.6998C0.680191 23.8603 0.917088 23.9618 1.16792 23.9925C1.41875 24.0232 1.67314 23.9819 1.90134 23.8733L24.568 13.2066C24.7971 13.099 24.9908 12.9283 25.1264 12.7146C25.2621 12.501 25.3341 12.2531 25.3341 12C25.3341 11.7469 25.2621 11.499 25.1264 11.2853C24.9908 11.0716 24.7971 10.901 24.568 10.7933Z" fill="#6060B5"/>
</svg>
