<svg width="32" height="32" viewBox="0 0 32 32" fill="none" xmlns="http://www.w3.org/2000/svg">
<path d="M28.568 14.7933L5.90134 4.12665C5.6731 4.01925 5.41907 3.9788 5.16876 4.00999C4.91844 4.04119 4.68211 4.14275 4.48721 4.30289C4.29231 4.46303 4.14683 4.67517 4.06767 4.91468C3.98852 5.15419 3.97892 5.41124 4.04001 5.65598L5.65601 12.1213L16 16L5.65601 19.8786L4.04001 26.344C3.97777 26.5889 3.98657 26.8465 4.06536 27.0866C4.14415 27.3267 4.28969 27.5394 4.48494 27.6998C4.68019 27.8603 4.91709 27.9618 5.16792 27.9925C5.41875 28.0232 5.67314 27.9819 5.90134 27.8733L28.568 17.2066C28.7971 17.099 28.9908 16.9283 29.1264 16.7146C29.2621 16.501 29.3341 16.2531 29.3341 16C29.3341 15.7469 29.2621 15.499 29.1264 15.2853C28.9908 15.0716 28.7971 14.901 28.568 14.7933Z" fill="#40AADC"/>
</svg>
