<svg width="22" height="22" viewBox="0 0 22 22" fill="none" xmlns="http://www.w3.org/2000/svg">
<path d="M11.7316 1.4685V0H10.2686V1.4685V2.9315H11.7316V1.4685Z" fill="#B7B7B7"/>
<path d="M4.40014 2.9315H2.93164V4.4H4.40014V2.9315Z" fill="#B7B7B7"/>
<path d="M19.0681 2.9315H17.5996V4.4H19.0681V2.9315Z" fill="#B7B7B7"/>
<path d="M5.86889 4.4H4.40039V5.8685H5.86889V4.4Z" fill="#B7B7B7"/>
<path d="M11.7313 5.8685H13.1998V4.4H11.7313H10.2683H8.7998V5.8685H10.2683H11.7313Z" fill="#B7B7B7"/>
<path d="M17.6003 4.4H16.1318V5.8685H17.6003V4.4Z" fill="#B7B7B7"/>
<path d="M8.80053 5.8685H7.33203V7.337H8.80053V5.8685Z" fill="#B7B7B7"/>
<path d="M14.6687 5.8685H13.2002V7.337H14.6687V5.8685Z" fill="#B7B7B7"/>
<path d="M7.33666 7.3315H5.86816V8.8H7.33666V7.3315Z" fill="#B7B7B7"/>
<path d="M16.1365 7.3315H14.668V8.8H16.1365V7.3315Z" fill="#B7B7B7"/>
<path d="M2.9315 10.2685H1.4685H0V11.7315H1.4685H2.9315V10.2685Z" fill="#B7B7B7"/>
<path d="M5.86889 10.2685V8.8H4.40039V10.2685V11.7315V13.2H5.86889V11.7315V10.2685Z" fill="#B7B7B7"/>
<path d="M16.1318 11.7315V13.2H17.6003V11.7315V10.2685V8.8H16.1318V10.2685V11.7315Z" fill="#B7B7B7"/>
<path d="M20.5314 10.2685H19.0684V11.7315H20.5314H21.9999V10.2685H20.5314Z" fill="#B7B7B7"/>
<path d="M7.33666 13.2H5.86816V14.6685H7.33666V13.2Z" fill="#B7B7B7"/>
<path d="M16.1365 13.2H14.668V14.6685H16.1365V13.2Z" fill="#B7B7B7"/>
<path d="M8.80053 14.6685H7.33203V16.137H8.80053V14.6685Z" fill="#B7B7B7"/>
<path d="M14.6687 14.6685H13.2002V16.137H14.6687V14.6685Z" fill="#B7B7B7"/>
<path d="M5.86889 16.1315H4.40039V17.6H5.86889V16.1315Z" fill="#B7B7B7"/>
<path d="M10.2683 16.1315H8.7998V17.6H10.2683H11.7313H13.1998V16.1315H11.7313H10.2683Z" fill="#B7B7B7"/>
<path d="M17.6003 16.1315H16.1318V17.6H17.6003V16.1315Z" fill="#B7B7B7"/>
<path d="M4.40014 17.6H2.93164V19.0685H4.40014V17.6Z" fill="#B7B7B7"/>
<path d="M19.0681 17.6H17.5996V19.0685H19.0681V17.6Z" fill="#B7B7B7"/>
<path d="M10.2686 20.5315V22H11.7316V20.5315V19.0685H10.2686V20.5315Z" fill="#B7B7B7"/>
</svg>
