<svg width="37" height="37" viewBox="0 0 37 37" fill="none" xmlns="http://www.w3.org/2000/svg">
<g clip-path="url(#clip0_576_76)">
<path d="M36.8966 19.1166C36.9661 19.3053 37 19.499 37 19.6894C37 20.3623 36.5862 20.9963 35.9183 21.2438L15.3292 28.8607C15.1422 28.9302 14.9477 28.9642 14.754 28.9642C14.5181 28.9642 14.2831 28.9137 14.0629 28.8119C13.6615 28.6274 13.3553 28.2971 13.2022 27.8825L8.97941 16.469C8.82628 16.0543 8.84369 15.6049 9.02826 15.2035C9.21282 14.8012 9.54308 14.4958 9.95774 14.3418L30.5475 6.72483C30.9622 6.5717 31.4116 6.58911 31.813 6.77368C32.2153 6.95825 32.5207 7.2885 32.6738 7.70316L36.8966 19.1166ZM35.0467 18.8849L31.3826 8.98356L26.3628 16.1611L35.0467 18.8849ZM16.2496 26.7551L33.8491 20.2439L25.3672 17.5838L24.0571 19.4585C23.8998 19.6828 23.6448 19.8118 23.3783 19.8118C23.3105 19.8118 23.241 19.8027 23.1722 19.7854L20.9582 19.2159L16.2496 26.7551ZM23.029 18.039L29.4153 8.90906L12.2379 15.2639L23.029 18.039ZM14.4561 26.5018L19.2764 18.7831L10.7936 16.6014L14.4561 26.5018Z" fill="#6411BE"/>
<path d="M31.3826 8.98349L35.0467 18.8849L26.3628 16.1611L31.3826 8.98349Z" fill="#B887D6"/>
<path d="M33.849 20.2439L16.2495 26.7551L20.9581 19.2159L23.1721 19.7854C23.2408 19.8028 23.3104 19.8119 23.3782 19.8119C23.6447 19.8119 23.8996 19.6828 24.0569 19.4585L25.3671 17.5839L33.849 20.2439Z" fill="#B887D6"/>
<path d="M29.4151 8.90906L23.0289 18.039L12.2378 15.2638L29.4151 8.90906Z" fill="#A88DFF"/>
<path d="M19.2762 18.7831L14.4559 26.5018L10.7935 16.6014L19.2762 18.7831Z" fill="#B887D6"/>
<path d="M9.643 28.1091C9.80192 28.5379 9.58259 29.0138 9.15384 29.1727L6.03522 30.3265C5.94004 30.3612 5.84321 30.3786 5.74803 30.3786C5.4112 30.3786 5.09504 30.1717 4.97168 29.8374C4.81277 29.4086 5.0321 28.9328 5.46085 28.7738L8.57947 27.62C9.00822 27.4619 9.48409 27.6805 9.643 28.1091Z" fill="#6411BE"/>
<path d="M5.42131 20.4252C5.58023 20.8539 5.3609 21.3306 4.93302 21.4887L3.00706 22.2013C2.91268 22.2361 2.81585 22.2526 2.71988 22.2526C2.38385 22.2526 2.06768 22.0465 1.94353 21.7121C1.78541 21.2834 2.00394 20.8075 2.4327 20.6486L4.35865 19.936C4.78653 19.7779 5.26327 19.9964 5.42131 20.4252Z" fill="#6411BE"/>
<path d="M3.03514 26.6955C3.19326 27.1242 2.97473 27.6001 2.54598 27.7582L1.11497 28.2879C1.02059 28.3227 0.923759 28.3392 0.82779 28.3392C0.491755 28.3392 0.175593 28.1331 0.0514406 27.7988C-0.106677 27.37 0.111855 26.8941 0.540607 26.7352L1.97161 26.2063C2.40029 26.0475 2.87623 26.2668 3.03514 26.6955Z" fill="#6411BE"/>
</g>
<defs>
<clipPath id="clip0_576_76">
<rect width="37" height="37" fill="white"/>
</clipPath>
</defs>
</svg>
