<svg width="31" height="31" viewBox="0 0 31 31" fill="none" xmlns="http://www.w3.org/2000/svg">
<g clip-path="url(#clip0_1_26)">
<path d="M30.6116 6.83264V24.2476C30.6116 25.3795 29.6951 26.296 28.5632 26.296H23.7816V14.6868L15.5868 20.8345L7.39203 14.6868V26.2973H2.61039C2.34129 26.2973 2.07482 26.2442 1.82622 26.1412C1.57762 26.0382 1.35175 25.8872 1.16153 25.6969C0.9713 25.5065 0.820443 25.2806 0.717576 25.0319C0.614709 24.7832 0.561848 24.5167 0.562012 24.2476V6.83264C0.562012 4.29971 3.45303 2.85357 5.47888 4.37358L7.39203 5.8097L15.5868 11.9548L23.7816 5.8072L25.6947 4.37358C27.7193 2.85482 30.6116 4.29971 30.6116 6.83264Z" fill="#565656"/>
</g>
<defs>
<clipPath id="clip0_1_26">
<rect width="30.0496" height="30.0496" fill="white" transform="translate(0.5625)"/>
</clipPath>
</defs>
</svg>
