<svg width="86" height="85" viewBox="0 0 86 85" fill="none" xmlns="http://www.w3.org/2000/svg">
<g filter="url(#filter0_dd_1_30)">
<path d="M54.2266 32.6617C49.3198 27.5373 41.1826 26.5209 35.0107 30.194C26.9425 34.9948 26.7809 44.2603 29.8225 49.5269C34.3252 57.3258 43.9634 57.4744 47.4263 55.9998C49.718 55.0254 48.6989 52.0425 46.4921 52.9326C42.1347 54.6927 34.8021 52.9289 32.2402 47.015C29.8891 41.593 32.3092 35.82 36.0905 33.212C39.648 30.7599 46.3369 30.0411 51.3221 34.4041C56.6707 39.0839 54.4001 47.1611 52.5021 49.1118C52.0154 49.6084 51.1387 49.2088 51.217 48.4346L51.2114 36.6137C51.2114 36.2807 50.9832 35.2298 49.8726 35.2298L49.6929 35.2308C48.9822 35.2308 48.4707 35.8041 48.4707 36.5642V36.5583C46.8916 34.9745 44.7398 33.9631 42.4515 33.9631C37.9302 33.9631 33.952 37.9875 33.952 42.5536C33.952 47.0749 37.9302 51.0521 42.4515 51.0521C44.7398 51.0521 46.84 50.1383 48.4182 48.5723L48.4418 49.4164C48.4204 51.9985 51.7866 53.7225 54.0531 51.9506C59.0563 48.0512 59.3554 38.0194 54.2266 32.6617ZM42.4213 48.2664C39.4085 48.2664 37.1109 46.1024 37.1109 42.6778C37.1109 39.6184 39.0099 36.9252 42.4344 36.9252H42.5469C45.514 36.9252 47.9714 38.916 48.1414 42.2263L48.1489 42.8951C47.989 45.8059 45.7804 48.2664 42.4213 48.2664Z" fill="#9BFF9F"/>
</g>
<defs>
<filter id="filter0_dd_1_30" x="0" y="0" width="85.9414" height="84.7263" filterUnits="userSpaceOnUse" color-interpolation-filters="sRGB">
<feFlood flood-opacity="0" result="BackgroundImageFix"/>
<feColorMatrix in="SourceAlpha" type="matrix" values="0 0 0 0 0 0 0 0 0 0 0 0 0 0 0 0 0 0 127 0" result="hardAlpha"/>
<feOffset/>
<feGaussianBlur stdDeviation="4"/>
<feComposite in2="hardAlpha" operator="out"/>
<feColorMatrix type="matrix" values="0 0 0 0 0.506944 0 0 0 0 1 0 0 0 0 0.58912 0 0 0 0.34 0"/>
<feBlend mode="normal" in2="BackgroundImageFix" result="effect1_dropShadow_1_30"/>
<feColorMatrix in="SourceAlpha" type="matrix" values="0 0 0 0 0 0 0 0 0 0 0 0 0 0 0 0 0 0 127 0" result="hardAlpha"/>
<feOffset/>
<feGaussianBlur stdDeviation="14"/>
<feComposite in2="hardAlpha" operator="out"/>
<feColorMatrix type="matrix" values="0 0 0 0 0.388119 0 0 0 0 0.980512 0 0 0 0 0.427612 0 0 0 0.61 0"/>
<feBlend mode="normal" in2="effect1_dropShadow_1_30" result="effect2_dropShadow_1_30"/>
<feBlend mode="normal" in="SourceGraphic" in2="effect2_dropShadow_1_30" result="shape"/>
</filter>
</defs>
</svg>
