<svg width="26" height="26" viewBox="0 0 26 26" fill="none" xmlns="http://www.w3.org/2000/svg">
<g clip-path="url(#clip0_1_31)">
<path d="M25.0412 9.76927C25.0412 9.31052 24.7124 8.93741 24.3103 8.93741H17.1279V10.5996H22.8117L19.0836 13.6716L17.1279 12.0691V14.1778L18.6616 15.421C18.9109 15.6228 19.261 15.6228 19.5103 15.4195L23.5793 12.1211V16.5143H17.1279V18.1765H24.3103C24.7124 18.1765 25.0412 17.8049 25.0412 17.3447V10.5063C25.0412 10.4864 25.0397 10.4681 25.0381 10.4482C25.0397 10.4283 25.0412 10.4084 25.0412 10.3901V9.76927Z" fill="#565656"/>
<path d="M7.82221 16.4578C8.87121 16.4578 9.54403 15.0755 9.54403 13.0127C9.54403 11.3016 9.04706 9.5675 7.82221 9.5675C6.52702 9.5675 6.0484 11.3245 6.0484 13.0127C6.0484 14.9807 6.66923 16.4578 7.82221 16.4578Z" fill="#565656"/>
<path d="M0 23.4294L15.5897 24.5732V1.47845L0 2.8501V23.4294ZM7.89346 7.03691C10.5557 7.03691 12.331 9.4499 12.331 12.8951C12.331 17.0895 10.0756 19.0117 7.75125 19.0117C5.21286 19.0117 3.26014 16.8097 3.26014 13.1076C3.26167 9.4025 5.10735 7.03691 7.89346 7.03691Z" fill="#565656"/>
</g>
<defs>
<clipPath id="clip0_1_31">
<rect width="25.0413" height="25.0413" fill="white" transform="translate(0 0.504395)"/>
</clipPath>
</defs>
</svg>
