<svg width="23" height="23" viewBox="0 0 23 23" fill="none" xmlns="http://www.w3.org/2000/svg">
<g clip-path="url(#clip0_1_37)">
<path d="M17.8285 0.511247C17.7837 0.637006 13.6569 11.8697 12.5271 15.0272V15.3589V22.4704C12.5271 22.607 12.4453 22.6889 12.3365 22.6889H10.5773C10.4411 22.6889 10.3867 22.6071 10.3867 22.4704V14.9681C9.03138 11.5559 5.67625 2.62472 5.62968 2.5259C5.57096 2.4023 5.67409 2.20299 5.85514 2.20299H7.71269C7.95902 2.20299 8.02346 2.37752 8.06088 2.51807C8.12787 2.77399 10.4189 9.17957 10.6583 9.91951L11.6419 12.6074C11.7559 12.1761 12.2312 10.3791 12.3766 9.86942C12.5824 9.15047 15.411 0.519126 15.4353 0.398561C15.4597 0.278436 15.565 0.19577 15.733 0.19577H17.6358C17.8673 0.195726 17.8834 0.357624 17.8285 0.511247Z" fill="#565656"/>
</g>
<defs>
<clipPath id="clip0_1_37">
<rect width="22.5372" height="22.5372" fill="white" transform="translate(0.460938 0.173828)"/>
</clipPath>
</defs>
</svg>
